<?xml version="1.0" encoding="iso-8859-1"?>
<!-- Generator: Adobe Illustrator 16.0.0, SVG Export Plug-In . SVG Version: 6.00 Build 0)  -->
<!DOCTYPE svg PUBLIC "-//W3C//DTD SVG 1.1//EN" "http://www.w3.org/Graphics/SVG/1.1/DTD/svg11.dtd">
<svg version="1.1" id="Capa_1" xmlns="http://www.w3.org/2000/svg" xmlns:xlink="http://www.w3.org/1999/xlink" x="0px" y="0px"
	 width="41.737px" height="41.738px" viewBox="0 0 41.737 41.738" style="enable-background:new 0 0 41.737 41.738;"
	 xml:space="preserve">
<g>
	<path fill="white" d="M39.738,1.494h-11.41c-1.104,0-2,0.895-2,2v19.391c0,1.076-0.873,1.949-1.949,1.949h-7.022
		c-1.073,0-1.948-0.873-1.948-1.949V3.494c0-1.105-0.896-2-2-2H2c-1.104,0-2,0.895-2,2v19.391c0,9.572,7.787,17.359,17.356,17.359
		h7.022c9.572,0,17.359-7.787,17.359-17.359V3.494C41.738,2.389,40.842,1.494,39.738,1.494z M30.328,5.494h7.41v6.6h-7.41V5.494z
		 M3.999,5.494h7.408v6.6H3.999V5.494z"/>
</g>
<g>
</g>
<g>
</g>
<g>
</g>
<g>
</g>
<g>
</g>
<g>
</g>
<g>
</g>
<g>
</g>
<g>
</g>
<g>
</g>
<g>
</g>
<g>
</g>
<g>
</g>
<g>
</g>
<g>
</g>
</svg>
